<svg version="1.1" xmlns="http://www.w3.org/2000/svg" xmlns:xlink="http://www.w3.org/1999/xlink" width="425.7659912109375" height="160.7010040283203" enable-background="new 0 0 425.766 160.701" xml:space="preserve" style=""><rect id="backgroundrect" width="100%" height="100%" x="0" y="0" fill="none" stroke="none"/>







<g class="currentLayer" style=""><title>Layer 1</title>
	<defs>
		<rect id="SVGID_1_" width="425.7659912109375" height="160.7010040283203" opacity="1"/>
	</defs>
	<clipPath id="SVGID_2_">
		<use xlink:href="#SVGID_1_" overflow="visible" id="svg_2"/>
	</clipPath>
	
		<defs>
			<rect id="SVGID_3_" width="425.7659912109375" height="160.7010040283203" opacity="1"/>
		</defs>
		<clipPath id="SVGID_4_">
			<use xlink:href="#SVGID_3_" overflow="visible" id="svg_4"/>
		</clipPath>
		<path clip-path="url(#SVGID_4_)" fill="#85B5D8" d="M285.874,126.618c2.849,0,5.157-2.309,5.157-5.158    c0-2.849-2.309-5.158-5.157-5.158s-5.158,2.31-5.158,5.158C280.716,124.31,283.025,126.618,285.874,126.618" id="svg_5" opacity="1" class=""/>
		<path clip-path="url(#SVGID_4_)" fill="#71A8D1" d="M279.979,109.934c2.307,0,4.176-1.87,4.176-4.177    c0-2.306-1.869-4.175-4.176-4.175c-2.306,0-4.176,1.869-4.176,4.175C275.803,108.063,277.673,109.934,279.979,109.934" id="svg_6" opacity="1" class=""/>
		<path clip-path="url(#SVGID_4_)" fill="#71A8D1" d="M301.25,113.415c3.543,0,6.416-2.873,6.416-6.417s-2.873-6.416-6.416-6.416    c-3.545,0-6.418,2.872-6.418,6.416S297.705,113.415,301.25,113.415" id="svg_7" opacity="1" class=""/>
		<path clip-path="url(#SVGID_4_)" fill="#71A8D1" d="M297.471,0c-2.85,0-5.158,2.31-5.158,5.158c0,2.85,2.309,5.158,5.158,5.158    c2.849,0,5.158-2.309,5.158-5.158C302.629,2.31,300.319,0,297.471,0" id="svg_8" opacity="1" class=""/>
		<path clip-path="url(#SVGID_4_)" fill="#71A8D1" d="M285.984,9.834c-1.922,0-3.482,1.559-3.482,3.482s1.561,3.482,3.482,3.482    c1.924,0,3.483-1.559,3.483-3.482S287.908,9.834,285.984,9.834" id="svg_9" opacity="1" class=""/>
		<path clip-path="url(#SVGID_4_)" fill="#71A8D1" d="M293.9,17.799c-1.419,0-2.57,1.151-2.57,2.57s1.151,2.57,2.57,2.57    s2.57-1.151,2.57-2.57S295.319,17.799,293.9,17.799" id="svg_10" opacity="1" class=""/>
		<path clip-path="url(#SVGID_4_)" fill="#3586C0" d="M337.385,139.741l-16.223-24.979c-0.088,0.049-0.182,0.097-0.271,0.145    c-3.069,11.269-11.838,20.04-34.683,17.594c-18.144-1.941-29.494-9.224-36.606-19.519c-0.215-0.069-0.444-0.154-0.658-0.222    l-9.493,6.165c0,0,1.911,23.216,42.547,32.781c6.908,1.627,0.065,0.011,0.065,0.011    C329.94,162.977,337.385,139.741,337.385,139.741" id="svg_11" opacity="1" class=""/>
		<path clip-path="url(#SVGID_4_)" fill="#85B5D8" d="M260.428,116.955c-0.031,0.126-0.045,0.251-0.055,0.376    c1.614,0.419,3.061,0.623,4.348,0.634c0.256-1.163-0.455-2.327-1.617-2.617C261.92,115.053,260.723,115.772,260.428,116.955" id="svg_12" opacity="1" class=""/>
		<path clip-path="url(#SVGID_4_)" fill="#71A8D1" d="M267.74,133.499c1.899,0,3.439-1.54,3.439-3.438    c0-1.899-1.54-3.439-3.439-3.439c-1.898,0-3.438,1.54-3.438,3.439C264.302,131.959,265.842,133.499,267.74,133.499" id="svg_13" opacity="1" class=""/>
		
			<path clip-path="url(#SVGID_4_)" fill="none" stroke="#ffffff" stroke-width="5.895" stroke-linecap="round" stroke-linejoin="round" d="    M311.078,20.912c-1.348,0-2.695,0-4.043,0c0,22.228,0,44.456,0,66.684c10.939,16.847,21.881,33.693,32.82,50.541    c0.482,0.741,0.605,1.662,0.336,2.504c-0.333,1.041-8.62,25.034-56.803,14.401c-0.619-0.125-1.308-0.285-2.066-0.465    c-42.234-9.942-44.723-34.375-44.809-35.41c-0.088-1.071,0.414-2.105,1.31-2.699c16.317-10.808,32.636-21.615,48.954-32.424    c0-18.06,0-36.121,0-54.183c-1.365,0-2.729,0-4.094,0.001" id="svg_14" opacity="1" class="selected" stroke-opacity="1"/>
		<path clip-path="url(#SVGID_4_)" fill="#85B5D8" d="M321.052,114.821c-12.092,6.677-33.452,11.778-67.558-0.522    c-1.483-0.535-2.915-1.012-4.323-1.463c7.084,10.621,18.533,18.149,37.037,20.131    C309.428,135.452,318.121,126.355,321.052,114.821" id="svg_15" opacity="1" class=""/>
		<path clip-path="url(#SVGID_4_)" fill="#71A8D1" d="M280.252,145.739c1.627,0,2.947-1.32,2.947-2.948    c0-1.627-1.32-2.947-2.947-2.947c-1.629,0-2.948,1.32-2.948,2.947C277.304,144.419,278.623,145.739,280.252,145.739" id="svg_16" opacity="1" class=""/>
		<g opacity="1" clip-path="url(#SVGID_4_)" id="svg_17" class="">
			<g id="svg_18" opacity="1">
				<defs>
					<rect id="SVGID_5_" x="284.7619934082031" y="117.07099914550781" width="20.14299964904785" height="11.142999649047852" opacity="1"/>
				</defs>
				<clipPath id="SVGID_6_">
					<use xlink:href="#SVGID_5_" overflow="visible" id="svg_19"/>
				</clipPath>
				<path clip-path="url(#SVGID_6_)" fill="#FFFFFF" d="M294.832,127.214c0.593,0,1.072-0.479,1.072-1.07      c0-0.593-0.479-1.071-1.072-1.071c-0.592,0-1.07,0.479-1.07,1.071C293.762,126.734,294.24,127.214,294.832,127.214" id="svg_20" opacity="1"/>
			</g>
		</g>
		<path clip-path="url(#SVGID_4_)" fill="#85B5D8" d="M308.76,148.687c2.306,0,4.176-1.935,4.176-4.319    c0-2.386-1.87-4.319-4.176-4.319c-2.307,0-4.176,1.934-4.176,4.319C304.584,146.752,306.453,148.687,308.76,148.687" id="svg_21" opacity="1" class=""/>
		<g clip-path="url(#SVGID_4_)" id="svg_22" opacity="1" class="" fill="#ffffff" fill-opacity="1">
			<path fill="#ffffff" d="M40.321,80.047L1.68,81.904l9.196-4.687L8.754,34.862L0,31.325l27.235-0.088l-8.224,3.714L18.304,77.66     l17.154,0.707l4.863-15.032V80.047z" id="svg_23" opacity="1" fill-opacity="1"/>
			<path fill="#ffffff" d="M72.684,74.919l-12.91-0.177l0.442-3.714c-2.358,0.472-5.011,0.678-7.958,0.618     c-6.957-0.234-10.522-2.299-10.699-6.189c-0.119-2.476,0.751-4.435,2.608-5.88c1.857-1.444,4.435-2.167,7.737-2.167     c0.766,0,1.532,0.06,2.299,0.177l7.693,0.708c0.117-1.179,0.177-2.445,0.177-3.803c0-7.485-1.887-11.229-5.659-11.229     c-0.354,0-0.738,0.06-1.149,0.177c-1.651-0.117-3.154,0.177-4.51,0.884c-1.534,0.768-2.447,1.917-2.741,3.449     c1.355,0.707,2.003,1.71,1.945,3.006c-0.296,2.182-1.592,3.214-3.891,3.096c-2.005-0.059-3.006-1.119-3.006-3.184     c0-0.412,0.058-0.825,0.177-1.238c1.592-5.54,6.042-8.193,13.352-7.958c7.663,0.296,11.495,4.421,11.495,12.38     c0,0.943-0.06,1.976-0.177,3.095l-1.327,14.854L72.684,74.919z M61.63,59.71c-2.653-0.354-4.746-0.589-6.278-0.708     c-1.534-0.177-2.949,0.06-4.245,0.708c-1.887,0.826-2.86,2.358-2.918,4.598c-0.06,1.711,0.619,3.065,2.034,4.067     c1.179,0.826,2.476,1.238,3.891,1.238c1.061,0,3.212-0.235,6.455-0.708L61.63,59.71z" id="svg_24" opacity="1" fill-opacity="1"/>
			<path fill="#ffffff" d="M114.507,81.02l-18.922,0.177l7.427-5.394l0.354-9.815c0.235-6.247-2.712-9.342-8.843-9.284     c-3.656,0-6.455,0.59-8.4,1.769l-1.415,14.324l6.985,5.571l-19.011,0.088l7.428-5.305l-2.034-16.358l-9.727-2.477l18.304-2.829     L86.3,55.73c1.061-0.471,3.743-0.913,8.046-1.326c10.434-0.059,15.651,3.655,15.651,11.142l-2.476,9.903L114.507,81.02z" id="svg_25" opacity="1" fill-opacity="1"/>
			<path fill="#ffffff" d="M144.66,46.357c-0.767,0-1.503-0.266-2.21-0.796c-0.943-0.707-1.415-1.769-1.415-3.184     c0-0.354,0.029-0.707,0.088-1.061c-0.531-0.294-1.003-0.442-1.415-0.442c-0.884,0-1.71,0.679-2.476,2.034     c-1.061,2.005-1.651,3.065-1.769,3.183c2.593,1.238,4.671,2.978,6.234,5.218c1.561,2.24,2.343,4.717,2.343,7.428     c0,3.419-1.194,6.44-3.581,9.063c-2.388,2.623-5.38,4.288-8.975,4.995c-2.536,0.473-5.248,0.708-8.135,0.708     c-0.531,0.413-0.796,0.855-0.796,1.326c0,0.885,1.09,1.711,3.272,2.476c1.945,0.648,4.067,1.031,6.366,1.149     c2.771,0.178,5.541,1.002,8.312,2.477c4.775,2.476,7.163,6.189,7.163,11.142c0,3.771-1.769,6.764-5.306,8.975     s-7.958,3.316-13.264,3.316c-5.305,0-9.668-1.062-13.087-3.184c-3.656-2.299-5.482-5.336-5.482-9.107     c0-4.54,3.36-8.136,10.08-10.788c-0.119,0.058-1.091-0.207-2.918-0.796c-2.358-0.767-3.537-1.976-3.537-3.625     c0-1.65,1.327-2.947,3.979-3.891c2.122-0.766,3.241-1.15,3.36-1.15c-2.83-1.119-5.115-2.858-6.853-5.217     c-1.739-2.356-2.608-4.98-2.608-7.869c0-3.949,1.562-7.324,4.687-10.125c3.124-2.799,6.897-4.2,11.318-4.2     c1.769,0,3.506,0.266,5.217,0.796c2.417-5.54,5.334-8.312,8.754-8.312c1.178,0,2.534,0.354,4.067,1.061     c1.769,0.826,2.653,2.122,2.653,3.891c0,1.121-0.413,2.152-1.238,3.095C146.663,45.887,145.721,46.357,144.66,46.357z      M140.857,92.073c0-3.184-1.12-5.659-3.36-7.428c-2.241-1.769-5.04-2.653-8.4-2.653c-3.36,0-6.101,0.854-8.224,2.564     c-2.299,1.827-3.448,4.333-3.448,7.517c0,3.123,1.149,5.628,3.448,7.516c2.123,1.709,4.864,2.564,8.224,2.564     c3.36,0,6.159-0.899,8.4-2.697C139.737,97.657,140.857,95.196,140.857,92.073z M137.498,58.737c0-3.419-0.929-6.352-2.785-8.799     c-1.857-2.445-4.083-3.669-6.676-3.669c-2.653,0-4.908,1.224-6.765,3.669c-1.857,2.447-2.785,5.38-2.785,8.799     c0,3.479,0.928,6.44,2.785,8.887s4.112,3.669,6.765,3.669c2.593,0,4.819-1.223,6.676-3.669     C136.569,65.178,137.498,62.216,137.498,58.737z" id="svg_26" opacity="1" fill-opacity="1"/>
			<path fill="#ffffff" d="M184.273,79.34l-12.291,1.856v-3.359c-0.767,0.294-1.534,0.56-2.299,0.796     c-2.004,0.471-3.979,0.707-5.924,0.707c-5.778,0.058-9.815-1.003-12.114-3.184c-2.064-2.003-2.948-5.334-2.652-9.992     l0.707-10.699l-6.101-3.625h13.882l-2.122,14.324c0,3.537,0.471,6.072,1.415,7.604c1.178,2.005,3.448,3.007,6.809,3.007     c3.537,0,6.424-0.707,8.666-2.122l1.68-17.685l-8.047-4.067l16.005-0.089l-4.333,23.786L184.273,79.34z" id="svg_27" opacity="1" fill-opacity="1"/>
			<path fill="#ffffff" d="M213.629,74.919l-12.91-0.177l0.442-3.714c-2.358,0.472-5.011,0.678-7.958,0.618     c-6.957-0.234-10.522-2.299-10.699-6.189c-0.119-2.476,0.751-4.435,2.608-5.88c1.857-1.444,4.435-2.167,7.737-2.167     c0.766,0,1.532,0.06,2.299,0.177l7.693,0.708c0.117-1.179,0.177-2.445,0.177-3.803c0-7.485-1.887-11.229-5.659-11.229     c-0.354,0-0.738,0.06-1.149,0.177c-1.651-0.117-3.154,0.177-4.51,0.884c-1.534,0.768-2.447,1.917-2.741,3.449     c1.355,0.707,2.003,1.71,1.945,3.006c-0.296,2.182-1.592,3.214-3.891,3.096c-2.005-0.059-3.006-1.119-3.006-3.184     c0-0.412,0.058-0.825,0.177-1.238c1.592-5.54,6.042-8.193,13.352-7.958c7.663,0.296,11.495,4.421,11.495,12.38     c0,0.943-0.06,1.976-0.177,3.095l-1.327,14.854L213.629,74.919z M202.576,59.71c-2.653-0.354-4.746-0.589-6.278-0.708     c-1.534-0.177-2.949,0.06-4.245,0.708c-1.887,0.826-2.86,2.358-2.918,4.598c-0.06,1.711,0.619,3.065,2.034,4.067     c1.179,0.826,2.476,1.238,3.891,1.238c1.061,0,3.212-0.235,6.455-0.708L202.576,59.71z" id="svg_28" opacity="1" fill-opacity="1"/>
			<path fill="#ffffff" d="M243.428,46.357c-0.767,0-1.503-0.266-2.211-0.796c-0.943-0.707-1.414-1.769-1.414-3.184     c0-0.354,0.029-0.707,0.088-1.061c-0.53-0.294-1.003-0.442-1.414-0.442c-0.885,0-1.711,0.679-2.477,2.034     c-1.061,2.005-1.65,3.065-1.768,3.183c2.593,1.238,4.671,2.978,6.233,5.218c1.562,2.24,2.343,4.717,2.343,7.428     c0,3.419-1.193,6.44-3.58,9.063c-2.389,2.623-5.381,4.288-8.976,4.995c-2.536,0.473-5.248,0.708-8.135,0.708     c-0.531,0.413-0.796,0.855-0.796,1.326c0,0.885,1.09,1.711,3.272,2.476c1.945,0.648,4.067,1.031,6.366,1.149     c2.771,0.178,5.54,1.002,8.312,2.477c4.775,2.476,7.163,6.189,7.163,11.142c0,3.771-1.769,6.764-5.306,8.975     s-7.958,3.316-13.264,3.316c-5.305,0-9.668-1.062-13.087-3.184c-3.656-2.299-5.482-5.336-5.482-9.107     c0-4.54,3.36-8.136,10.08-10.788c-0.119,0.058-1.091-0.207-2.918-0.796c-2.358-0.767-3.537-1.976-3.537-3.625     c0-1.65,1.327-2.947,3.979-3.891c2.122-0.766,3.241-1.15,3.36-1.15c-2.83-1.119-5.115-2.858-6.853-5.217     c-1.739-2.356-2.608-4.98-2.608-7.869c0-3.949,1.562-7.324,4.687-10.125c3.124-2.799,6.897-4.2,11.318-4.2     c1.769,0,3.506,0.266,5.217,0.796c2.416-5.54,5.334-8.312,8.754-8.312c1.178,0,2.533,0.354,4.067,1.061     c1.769,0.826,2.653,2.122,2.653,3.891c0,1.121-0.414,2.152-1.238,3.095C245.432,45.887,244.489,46.357,243.428,46.357z      M239.625,92.073c0-3.184-1.119-5.659-3.359-7.428c-2.241-1.769-5.04-2.653-8.4-2.653c-3.36,0-6.101,0.854-8.224,2.564     c-2.299,1.827-3.448,4.333-3.448,7.517c0,3.123,1.149,5.628,3.448,7.516c2.123,1.709,4.864,2.564,8.224,2.564     c3.36,0,6.159-0.899,8.4-2.697C238.506,97.657,239.625,95.196,239.625,92.073z M236.266,58.737c0-3.419-0.929-6.352-2.785-8.799     c-1.857-2.445-4.083-3.669-6.676-3.669c-2.653,0-4.908,1.224-6.765,3.669c-1.857,2.447-2.785,5.38-2.785,8.799     c0,3.479,0.928,6.44,2.785,8.887s4.112,3.669,6.765,3.669c2.593,0,4.819-1.223,6.676-3.669     C235.337,65.178,236.266,62.216,236.266,58.737z" id="svg_29" opacity="1" fill-opacity="1"/>
			<path fill="#ffffff" d="M275.525,64.042l-24.936,0.442c0.117,2.418,0.942,4.54,2.476,6.366c1.886,2.182,4.567,3.272,8.047,3.272     c4.244,0,8.783-2.269,13.617-6.809c-3.125,6.603-7.929,9.903-14.413,9.903c-4.48,0-8.194-1.09-11.142-3.271     c-3.302-2.477-5.1-6.042-5.394-10.7c-0.236-4.421,1.296-8.223,4.598-11.406c3.537-3.36,8.135-4.863,13.795-4.51     c4.361,0.354,7.781,2.358,10.257,6.013C274.553,56.468,275.584,60.034,275.525,64.042z M268.982,61.832     c0.117-2.711-0.473-5.069-1.77-7.074c-1.474-2.239-3.508-3.537-6.101-3.891c-2.3-0.294-4.304,0.177-6.013,1.415     c-2.535,1.71-4.039,4.834-4.51,9.373L268.982,61.832z" id="svg_30" opacity="1" fill-opacity="1"/>
		</g>
	
	<g clip-path="url(#SVGID_2_)" id="svg_31" opacity="1" class="" fill="#ffffff" fill-opacity="1">
		<path fill="#ffffff" d="M356.893,80.047l-38.642,1.857l9.196-4.687l-2.123-42.355l-8.754-3.537l27.235-0.088l-8.224,3.714    l-0.707,42.709l17.154,0.707l4.863-15.032V80.047z" id="svg_32" opacity="1" fill-opacity="1"/>
		<path fill="#ffffff" d="M389.254,74.919l-12.91-0.177l0.443-3.714c-2.359,0.472-5.012,0.678-7.959,0.618    c-6.957-0.234-10.522-2.299-10.699-6.189c-0.119-2.476,0.752-4.435,2.608-5.88c1.856-1.444,4.435-2.167,7.737-2.167    c0.766,0,1.532,0.06,2.299,0.177l7.693,0.708c0.117-1.179,0.177-2.445,0.177-3.803c0-7.485-1.888-11.229-5.659-11.229    c-0.354,0-0.738,0.06-1.149,0.177c-1.651-0.117-3.154,0.177-4.51,0.884c-1.534,0.768-2.446,1.917-2.741,3.449    c1.355,0.707,2.004,1.71,1.945,3.006c-0.296,2.182-1.592,3.214-3.891,3.096c-2.005-0.059-3.006-1.119-3.006-3.184    c0-0.412,0.058-0.825,0.176-1.238c1.592-5.54,6.043-8.193,13.353-7.958c7.663,0.296,11.495,4.421,11.495,12.38    c0,0.943-0.06,1.976-0.177,3.095l-1.327,14.854L389.254,74.919z M378.201,59.71c-2.652-0.354-4.746-0.589-6.277-0.708    c-1.534-0.177-2.949,0.06-4.245,0.708c-1.888,0.826-2.86,2.358-2.918,4.598c-0.06,1.711,0.619,3.065,2.034,4.067    c1.178,0.826,2.476,1.238,3.891,1.238c1.061,0,3.212-0.235,6.455-0.708L378.201,59.71z" id="svg_33" opacity="1" fill-opacity="1"/>
		<path fill="#ffffff" d="M424.27,68.552c0,3.773-2.27,6.868-6.809,9.285c-3.656,1.945-7.516,2.976-11.584,3.095l-23.255,0.796    l7.427-5.395l0.266-41.56l-9.727-2.563l19.188-2.741l-2.653,29.445c0.648-0.235,1.444-0.472,2.388-0.708    c2.181-0.471,4.716-0.736,7.604-0.796C418.492,57.233,424.211,60.947,424.27,68.552z M416.135,68.994    c0-2.652-1.003-4.833-3.006-6.543c-2.006-1.71-4.629-2.564-7.871-2.564c-3.655,0-6.454,0.619-8.399,1.856l-1.503,16.358    c2.593,0.708,5.805,0.854,9.638,0.442C412.479,77.718,416.193,74.536,416.135,68.994z" id="svg_34" opacity="1" fill-opacity="1"/>
	</g>
	<g clip-path="url(#SVGID_2_)" id="svg_35" opacity="1" class="">
		<defs>
			<rect id="SVGID_7_" width="425.7659912109375" height="160.7010040283203" opacity="1"/>
		</defs>
		<clipPath id="SVGID_8_">
			<use xlink:href="#SVGID_7_" overflow="visible" id="svg_36"/>
		</clipPath>
		<g opacity="1" clip-path="url(#SVGID_8_)" id="svg_37">
			<g id="svg_38" opacity="1">
				<defs>
					<rect id="SVGID_9_" x="268.8370056152344" y="118.14299774169922" width="25.09000015258789" height="12.001999855041504" opacity="1"/>
				</defs>
				<clipPath id="SVGID_10_">
					<use xlink:href="#SVGID_9_" overflow="visible" id="svg_39"/>
				</clipPath>
				<path clip-path="url(#SVGID_10_)" fill="#FFFFFF" d="M281.382,129.145c1.958,0,3.545-0.673,3.545-1.501s-1.587-1.5-3.545-1.5      s-3.545,0.672-3.545,1.5S279.424,129.145,281.382,129.145" id="svg_40" opacity="1"/>
			</g>
		</g>
		<g opacity="1" clip-path="url(#SVGID_8_)" id="svg_41">
			<g id="svg_42" opacity="1">
				<defs>
					<rect id="SVGID_11_" x="254.53599548339844" y="109.21199798583984" width="26.565000534057617" height="20.893999099731445" opacity="1"/>
				</defs>
				<clipPath id="SVGID_12_">
					<use xlink:href="#SVGID_11_" overflow="visible" id="svg_43"/>
				</clipPath>
				<path clip-path="url(#SVGID_12_)" fill="#FFFFFF" d="M265.718,123.967c1.466,0.715,2.908,0.774,3.222,0.132      c0.312-0.642-0.621-1.742-2.088-2.457c-1.466-0.715-2.908-0.773-3.221-0.132S264.252,123.252,265.718,123.967" id="svg_44" opacity="1"/>
			</g>
		</g>
		<g opacity="1" clip-path="url(#SVGID_8_)" id="svg_45">
			<g id="svg_46" opacity="1">
				<defs>
					<rect id="SVGID_13_" x="230.4510040283203" y="104.76000213623047" width="115.93299865722656" height="51.0369987487793" opacity="1"/>
				</defs>
				<clipPath id="SVGID_14_">
					<use xlink:href="#SVGID_13_" overflow="visible" id="svg_47"/>
				</clipPath>
				<defs>
					<filter id="Adobe_OpacityMaskFilter" filterUnits="userSpaceOnUse" x="230.4510040283203" y="104.76000213623047" width="115.93299865722656" height="51.0369987487793">
						<feFlood style="flood-color: white; flood-opacity: 1;" result="back"/>
						<feBlend in="SourceGraphic" in2="back" mode="normal"/>
					</filter>
				</defs>
				<mask maskUnits="userSpaceOnUse" x="230.4510040283203" y="104.76000213623047" width="115.93299865722656" height="51.0369987487793" id="SVGID_15_">
					<g filter="url(#Adobe_OpacityMaskFilter)" id="svg_48" opacity="1">
						
							<linearGradient id="SVGID_16_" gradientUnits="userSpaceOnUse" x1="-533.9857788085938" y1="843.8583984375" x2="-532.986328125" y2="843.8583984375" gradientTransform="matrix(0 42.0368 42.0368 0 -35184.6641 22559.8125)">
							<stop offset="0" style="stop-color: rgb(255, 255, 255);"/>
							<stop offset="1" style="stop-color: rgb(0, 0, 0);"/>
						</linearGradient>
						<rect x="230.4510040283203" y="104.76000213623047" clip-path="url(#SVGID_14_)" fill="url(#SVGID_16_)" width="115.93299865722656" height="51.0369987487793" id="svg_49" opacity="1"/>
					</g>
				</mask>
				<g clip-path="url(#SVGID_14_)" mask="url(#SVGID_15_)" id="svg_50" opacity="1">
					<g id="svg_51" opacity="1">
						<defs>
							<rect id="SVGID_17_" x="230.4510040283203" y="104.76000213623047" width="115.93299865722656" height="51.0369987487793" opacity="1"/>
						</defs>
						<clipPath id="SVGID_18_">
							<use xlink:href="#SVGID_17_" overflow="visible" id="svg_52"/>
						</clipPath>
						<path clip-path="url(#SVGID_18_)" fill="#FFFFFF" d="M253.494,114.3c1.067,0.384,2.123,0.752,3.166,1.104        C255.617,115.052,254.562,114.684,253.494,114.3 M257.617,115.715c0.713,0.235,1.43,0.474,2.133,0.693        C259.047,116.188,258.33,115.95,257.617,115.715 M260.906,116.757c0.622,0.188,1.247,0.383,1.86,0.56        C262.153,117.14,261.528,116.945,260.906,116.757 M264.078,117.68c0.545,0.151,1.094,0.31,1.633,0.452        C265.172,117.989,264.623,117.831,264.078,117.68 M267.035,118.466c0.516,0.131,1.037,0.268,1.547,0.39        C268.072,118.733,267.551,118.597,267.035,118.466 M269.873,119.149c0.504,0.115,1.012,0.236,1.51,0.343        C270.885,119.386,270.377,119.265,269.873,119.149 M272.594,119.737c0.508,0.104,1.02,0.212,1.52,0.307        C273.613,119.949,273.102,119.841,272.594,119.737 M275.27,120.249c0.502,0.089,1.008,0.185,1.502,0.266        C276.277,120.434,275.771,120.338,275.27,120.249 M277.996,120.699c0.455,0.069,0.912,0.144,1.36,0.205        C278.908,120.843,278.451,120.769,277.996,120.699 M280.645,121.065c0.411,0.051,0.826,0.108,1.23,0.154        C281.471,121.174,281.056,121.117,280.645,121.065 M283.114,121.342c0.405,0.04,0.814,0.086,1.214,0.119        C283.929,121.428,283.52,121.382,283.114,121.342 M285.567,121.551c0.38,0.026,0.765,0.06,1.14,0.082        C286.332,121.61,285.947,121.577,285.567,121.551 M287.967,121.689c0.353,0.015,0.709,0.036,1.056,0.047        C288.676,121.726,288.319,121.704,287.967,121.689 M291.272,121.776c-0.34-0.002-0.688-0.012-1.033-0.018        C290.584,121.765,290.933,121.774,291.272,121.776 M292.473,121.765c0.326-0.003,0.658-0.002,0.98-0.011        C293.131,121.763,292.799,121.762,292.473,121.765 M294.666,121.709c0.301-0.012,0.606-0.02,0.903-0.034        C295.272,121.689,294.967,121.697,294.666,121.709 M296.803,121.594c0.271-0.02,0.549-0.033,0.816-0.056        C297.352,121.561,297.074,121.574,296.803,121.594 M298.864,121.421c0.246-0.023,0.498-0.044,0.742-0.07        C299.362,121.377,299.11,121.397,298.864,121.421 M300.862,121.195c0.222-0.028,0.447-0.053,0.666-0.083        C301.311,121.143,301.084,121.167,300.862,121.195 M302.782,120.921c0.201-0.031,0.408-0.06,0.608-0.094        C303.19,120.861,302.983,120.89,302.782,120.921 M304.651,120.598c0.179-0.033,0.36-0.064,0.536-0.099        C305.012,120.533,304.83,120.564,304.651,120.598 M306.461,120.229c0.153-0.034,0.311-0.064,0.463-0.1        C306.771,120.164,306.614,120.194,306.461,120.229 M308.178,119.825c0.14-0.035,0.285-0.067,0.424-0.104        C308.463,119.758,308.317,119.79,308.178,119.825 M309.871,119.374c0.113-0.031,0.23-0.062,0.342-0.095        C310.102,119.312,309.984,119.343,309.871,119.374 M311.474,118.896c0.098-0.032,0.2-0.062,0.298-0.092        C311.674,118.835,311.571,118.865,311.474,118.896 M313.023,118.384c0.081-0.028,0.164-0.056,0.244-0.083        C313.188,118.328,313.104,118.355,313.023,118.384 M314.519,117.84c0.062-0.023,0.126-0.047,0.188-0.069        C314.645,117.793,314.58,117.816,314.519,117.84 M315.97,117.264c0.038-0.017,0.077-0.031,0.116-0.047        C316.047,117.232,316.008,117.247,315.97,117.264 M317.32,116.682c0.03-0.015,0.061-0.027,0.092-0.04        C317.381,116.654,317.351,116.667,317.32,116.682 M318.629,116.073c0.017-0.008,0.033-0.016,0.051-0.023        C318.662,116.058,318.646,116.064,318.629,116.073 M319.885,115.445c0.003-0.001,0.005-0.002,0.007-0.003        C319.89,115.443,319.888,115.444,319.885,115.445 M337.385,139.741l-16.223-24.979c-0.035,0.02-0.074,0.039-0.111,0.059        c-2.93,11.534-11.622,20.631-34.842,18.146c-18.504-1.981-29.955-9.509-37.037-20.13c-0.074-0.023-0.154-0.054-0.228-0.076        l-9.493,6.165c0,0,1.911,23.216,42.547,32.781c6.908,1.627,0.065,0.011,0.065,0.011        C329.94,162.977,337.385,139.741,337.385,139.741" id="svg_53" opacity="1"/>
					</g>
				</g>
			</g>
		</g>
		<path clip-path="url(#SVGID_8_)" fill="#5E9DCB" d="M310.242,129.783c2.27-1.257,4.142-2.79,5.668-4.544    c-1.193-1.213-3.104-1.472-4.586-0.509C309.632,125.829,309.148,128.089,310.242,129.783" id="svg_54" opacity="1"/>
		<g opacity="1" clip-path="url(#SVGID_8_)" id="svg_55">
			<g id="svg_56" opacity="1">
				<defs>
					<rect id="SVGID_19_" x="288.781005859375" y="120.35399627685547" width="25.704999923706055" height="15.60099983215332" opacity="1"/>
				</defs>
				<clipPath id="SVGID_20_">
					<use xlink:href="#SVGID_19_" overflow="visible" id="svg_57"/>
				</clipPath>
				<path clip-path="url(#SVGID_20_)" fill="#FFFFFF" d="M305.233,131.799c0.108-0.173,0.154-0.347,0.119-0.512      c-0.146-0.683-1.571-0.958-3.185-0.615c-1.612,0.344-2.803,1.174-2.658,1.857c0.035,0.166,0.148,0.307,0.32,0.422      C301.791,132.688,303.59,132.3,305.233,131.799" id="svg_58" opacity="1"/>
			</g>
		</g>
		<path clip-path="url(#SVGID_8_)" fill="#85B5D8" d="M251.529,119.211c0,1.086,0.88,1.966,1.966,1.966    c0.771,0,1.429-0.446,1.752-1.09c-0.897-0.855-1.739-1.751-2.548-2.672C252.012,117.722,251.529,118.408,251.529,119.211" id="svg_59" opacity="1"/>
	</g>
<g id="svg_60">
</g><g id="svg_61">
</g><g id="svg_62">
</g><g id="svg_63">
</g><g id="svg_64">
</g><g id="svg_65">
</g></g></svg>